<svg fill="none" xmlns="http://www.w3.org/2000/svg" viewBox="0 0 1440 721" width="1440" height="721">
  <path fill="#0E0E0E" d="M0 0h1440v721H0z"/>
  <path d="M1545.94-301c-37.2 12.661-110.57 67.805-106.44 187.096 5.15 149.114 117.69 242.427 145.83 383.101 20.76 103.827 17.82 363.875-108.79 473.132" stroke="#fff"/>
  <path d="M1495.27-270.226c-37.2 12.66-110.57 67.804-106.45 187.096 5.16 149.113 117.7 242.427 145.83 383.1 20.77 103.828 17.82 363.876-108.78 473.132" stroke="#fff"/>
  <path d="M1443.82-240.751c-37.2 12.66-110.57 67.804-106.44 187.096 5.16 149.113 117.7 242.427 145.83 383.101 20.77 103.827 17.82 363.875-108.79 473.132" stroke="#fff"/>
  <path d="M1391.66-212.565c-37.2 12.66-110.57 67.804-106.44 187.096 5.16 149.114 117.69 242.427 145.83 383.101 20.76 103.827 17.82 363.875-108.79 473.132" stroke="#fff"/>
  <path d="M1338.8-185.726c-37.2 12.661-110.57 67.805-106.45 187.096 5.16 149.114 117.7 242.427 145.83 383.101 20.77 103.827 17.82 363.875-108.78 473.132" stroke="#fff"/>
  <path d="M1285.22-160.332c-37.2 12.661-110.57 67.805-106.44 187.096 5.15 149.114 117.69 242.428 145.83 383.101 20.76 103.828 17.82 363.876-108.79 473.132" stroke="#fff"/>
  <path d="M1230.92-136.521c-37.2 12.66-110.57 67.804-106.44 187.096 5.16 149.114 117.7 242.427 145.83 383.101 20.77 103.827 17.82 363.875-108.79 473.132" stroke="#fff"/>
  <path d="M1175.88-114.475c-37.2 12.661-110.57 67.805-106.44 187.096 5.16 149.114 117.7 242.427 145.83 383.101 20.77 103.827 17.82 363.875-108.79 473.132" stroke="#fff"/>
  <path d="M1120.09-94.422c-37.2 12.66-110.57 67.804-106.44 187.096 5.15 149.114 117.69 242.427 145.83 383.101 20.76 103.827 17.82 363.875-108.79 473.132" stroke="#fff"/>
  <path d="M1063.52-76.654c-37.2 12.66-110.565 67.805-106.439 187.096 5.158 149.114 117.699 242.427 145.829 383.101 20.77 103.828 17.82 363.875-108.785 473.132" stroke="#fff"/>
  <path d="M1006.2-61.539c-37.204 12.66-110.573 67.805-106.447 187.096 5.158 149.114 117.697 242.427 145.827 383.101 20.77 103.828 17.82 363.875-108.783 473.132" stroke="#fff"/>
  <path d="M948.131-49.544c-37.2 12.66-110.569 67.804-106.443 187.095 5.159 149.114 117.697 242.428 145.832 383.101 20.77 103.828 17.82 363.876-108.787 473.132" stroke="#fff"/>
  <path d="M889.422-41.265c-37.2 12.66-110.569 67.804-106.442 187.096 5.158 149.114 117.696 242.427 145.831 383.101 20.766 103.827 17.819 363.875-108.787 473.128" stroke="#fff"/>
  <path d="M830.256-37.445c-37.2 12.66-110.569 67.805-106.443 187.096 5.159 149.114 117.697 242.427 145.832 383.101 20.766 103.827 17.819 363.875-108.787 473.128" stroke="#fff"/>
  <path d="M770.989-39c-37.2 12.661-110.57 67.805-106.443 187.097 5.158 149.113 117.697 242.427 145.831 383.1 20.766 103.828 17.819 363.876-108.787 473.133" stroke="#fff"/>
  <path d="M712.239-46.984c-37.2 12.66-110.57 67.804-106.443 187.095 5.158 149.114 117.697 242.428 145.831 383.101 20.766 103.828 17.819 363.876-108.787 473.132" stroke="#fff"/>
  <path d="M655.008-62.476c-37.2 12.66-110.569 67.805-106.443 187.096 5.158 149.114 117.697 242.427 145.832 383.101 20.766 103.827 17.819 363.875-108.788 473.132" stroke="#fff"/>
  <path d="M590.87-90.47C553.669-77.81 480.3-22.666 484.427 96.626c5.158 149.114 117.697 242.427 145.831 383.101 20.766 103.827 17.819 363.875-108.787 473.132" stroke="#fff"/>
  <path d="M535.915-112.725c-37.201 12.661-110.57 67.805-106.443 187.096C434.63 223.485 547.169 316.8 575.303 457.472c20.766 103.828 17.819 363.876-108.787 473.132" stroke="#fff"/>
  <path d="M479.311-130.363c-37.2 12.661-110.569 67.805-106.443 187.096C378.026 205.847 490.565 299.16 518.7 439.834c20.765 103.828 17.818 363.876-108.788 473.132" stroke="#fff"/>
  <path d="M421.444-143.276c-37.2 12.661-110.569 67.805-106.443 187.096 5.158 149.114 117.697 242.428 145.832 383.101 20.765 103.828 17.818 363.876-108.788 473.132" stroke="#fff"/>
  <path d="M362.723-151.465c-37.2 12.661-110.569 67.805-106.443 187.096 5.158 149.114 117.697 242.427 145.832 383.101 20.765 103.827 17.819 363.875-108.788 473.132" stroke="#fff"/>
  <path d="M303.542-155.034c-37.201 12.661-110.57 67.805-106.443 187.096 5.158 149.114 117.697 242.428 145.831 383.101 20.766 103.828 17.819 363.876-108.787 473.132" stroke="#fff"/>
  <path d="M244.258-154.165c-37.2 12.661-110.569 67.805-106.443 187.096 5.158 149.114 117.697 242.427 145.832 383.101 20.766 103.828 17.819 363.876-108.788 473.132" stroke="#fff"/>
  <path d="M185.187-149.092c-37.2 12.661-110.57 67.805-106.443 187.096 5.158 149.114 117.697 242.427 145.832 383.101 20.765 103.827 17.818 363.875-108.788 473.132" stroke="#fff"/>
  <path d="M126.588-140.076C89.388-127.415 16.018-72.271 20.144 47.02c5.159 149.114 117.697 242.428 145.832 383.101 20.766 103.828 17.819 363.876-108.787 473.132" stroke="#fff"/>
  <path d="M68.674-127.375C31.474-114.714-41.895-59.57-37.769 59.721c5.158 149.114 117.697 242.427 145.832 383.101C128.829 546.649 125.882 806.697-.724 915.954" stroke="#fff"/>
  <path d="M11.626-111.23c-37.2 12.66-110.57 67.805-106.443 187.096C-89.66 224.98 22.879 318.293 51.014 458.967 71.78 562.795 68.833 822.843-57.773 932.099" stroke="#fff"/>
  <path d="M-44.39-91.842c-37.2 12.66-110.569 67.804-106.443 187.096 5.158 149.113 117.697 242.427 145.832 383.1C15.764 582.182 12.817 842.23-113.79 951.486" stroke="#fff"/>
</svg>
