<svg fill="none" xmlns="http://www.w3.org/2000/svg" viewBox="0 0 375 304" width="375" height="304">
    <path fill="#0E0E0E" d="M0 0h376v304H0z"/>
    <path d="M-228.115-41.956C-220.574-19.8-187.73 23.9-116.678 21.443c88.814-3.072 144.393-70.102 228.181-86.86C173.344-77.785 328.232-76.03 393.307-.62" stroke="#fff"/>
    <path d="M-211.327-10.888c7.541 22.157 40.385 65.856 111.437 63.399 88.814-3.073 144.393-70.102 228.181-86.86 61.841-12.368 216.729-10.613 281.804 64.796" stroke="#fff"/>
    <path d="M-195.341 20.6c7.541 22.157 40.386 65.856 111.437 63.399C4.911 80.926 60.49 13.897 144.277-2.861c61.841-12.368 216.73-10.613 281.805 64.796" stroke="#fff"/>
    <path d="M-180.216 52.51c7.541 22.157 40.386 65.857 111.437 63.399 88.815-3.072 144.394-70.102 228.181-86.86 61.841-12.368 216.73-10.613 281.805 64.796" stroke="#fff"/>
    <path d="M-166.034 84.85c7.541 22.158 40.385 65.858 111.437 63.4 88.814-3.072 144.393-70.102 228.181-86.86 61.841-12.368 216.729-10.613 281.804 64.796" stroke="#fff"/>
    <path d="M-152.903 117.632c7.541 22.157 40.385 65.857 111.437 63.399 88.814-3.072 144.393-70.102 228.181-86.86 61.841-12.368 216.729-10.613 281.804 64.796" stroke="#fff"/>
    <path d="M-140.959 150.864c7.541 22.157 40.385 65.857 111.437 63.399 88.815-3.072 144.394-70.102 228.181-86.859 61.841-12.368 216.73-10.613 281.804 64.795" stroke="#fff"/>
    <path d="M-170.057 208.222c7.541 22.157 40.386 65.857 111.437 63.399 88.815-3.072 144.394-70.102 228.181-86.859 61.841-12.368 216.73-10.613 281.805 64.795" stroke="#fff"/>
    <path d="M-174.935 243.198c7.541 22.157 40.386 65.857 111.438 63.399 88.814-3.072 144.393-70.102 228.18-86.859 61.842-12.368 216.73-10.613 281.805 64.795" stroke="#fff"/>
    <path d="M-177.061 278.447c7.541 22.157 40.386 65.857 111.438 63.399 88.814-3.072 144.393-70.102 228.18-86.859 61.842-12.368 216.73-10.613 281.805 64.795" stroke="#fff"/>
    <path d="M-176.543 313.757c7.541 22.157 40.386 65.857 111.437 63.399 88.815-3.072 144.394-70.102 228.181-86.86 61.841-12.368 216.73-10.613 281.804 64.796" stroke="#fff"/>
</svg>
