<svg fill="none" xmlns="http://www.w3.org/2000/svg" viewBox="0 0 526 526" width="526" height="526">
  <g filter="url(#a)">
    <path d="m447.758 212.504-12.624 6.838 5.786 11.046-2.104 12.098 2.104 6.838-10.52 26.3-1.052 16.832h-4.209l1.053 5.786-5.786 11.046 2.629 5.786-2.629 11.046-29.457 25.774-12.097 5.786-4.735-6.838h-4.208l-7.889 6.838-2.105 7.89H351.5l-6.312 11.046v7.89l-5.786 1.578 4.208 5.26 1.578 10.52-5.786-1.052-5.787 8.942-4.207-12.624-4.734-3.156-4.734 2.104-13.15 23.67 3.155 18.936-9.993 2.63-3.682 15.78-23.144 3.156-8.416-12.624-11.047-6.312-6.837-17.358-11.047 3.682-10.519 11.046-13.15 1.052-4.734-6.312-13.676-5.786-8.942 3.156-2.104 4.734h-5.786l-13.15-14.728-8.942-2.104-9.468 1.052-11.046-5.786-7.89-21.566-12.624-9.994-14.729 2.63-7.89-7.89-8.942 5.26 9.469-286.144 110.46-1.052 31.034 12.098 7.89 8.942 8.416.526 3.155-5.786 12.625 8.942-29.457 4.734 11.047 4.208 10.52-4.734 15.254 4.734-6.313-6.838 11.047 8.942 7.89 1.578 34.716-12.624 24.196 1.052 31.56-25.774 68.38-29.456 3.682 146.754Z" fill="#fff"/>
    <path d="m447.758 212.504-12.624 6.838 5.786 11.046-2.104 12.098 2.104 6.838-10.52 26.3-1.052 16.832h-4.209l1.053 5.786-5.786 11.046 2.629 5.786-2.629 11.046-29.457 25.774-12.097 5.786-4.735-6.838h-4.208l-7.889 6.838-2.105 7.89H351.5l-6.312 11.046v7.89l-5.786 1.578 4.208 5.26 1.578 10.52-5.786-1.052-5.787 8.942-4.207-12.624-4.734-3.156-4.734 2.104-13.15 23.67 3.155 18.936-9.993 2.63-3.682 15.78-23.144 3.156-8.416-12.624-11.047-6.312-6.837-17.358-11.047 3.682-10.519 11.046-13.15 1.052-4.734-6.312-13.676-5.786-8.942 3.156-2.104 4.734h-5.786l-13.15-14.728-8.942-2.104-9.468 1.052-11.046-5.786-7.89-21.566-12.624-9.994-14.729 2.63-7.89-7.89-8.942 5.26 9.469-286.144 110.46-1.052 31.034 12.098 7.89 8.942 8.416.526 3.155-5.786 12.625 8.942-29.457 4.734 11.047 4.208 10.52-4.734 15.254 4.734-6.313-6.838 11.047 8.942 7.89 1.578 34.716-12.624 24.196 1.052 31.56-25.774 68.38-29.456 3.682 146.754Z" stroke="#0E0E0E"/>
  </g>
  <path d="m364 148 4.49 13.82h14.531l-11.756 8.541 4.491 13.819L364 175.639l-11.756 8.541 4.491-13.819-11.756-8.541h14.531L364 148Z" fill="#0E0E0E"/>
  <defs>
    <filter id="a" x="69.658" y="64.998" width="378.606" height="407.789" filterUnits="userSpaceOnUse" color-interpolation-filters="sRGB">
      <feFlood flood-opacity="0" result="BackgroundImageFix"/>
      <feColorMatrix in="SourceAlpha" values="0 0 0 0 0 0 0 0 0 0 0 0 0 0 0 0 0 0 127 0" result="hardAlpha"/>
      <feOffset dx="-12" dy="12"/>
      <feColorMatrix values="0 0 0 0 0.74902 0 0 0 0 0.117647 0 0 0 0 0.180392 0 0 0 1 0"/>
      <feBlend in2="BackgroundImageFix" result="effect1_dropShadow_179:1190"/>
      <feBlend in="SourceGraphic" in2="effect1_dropShadow_179:1190" result="shape"/>
    </filter>
  </defs>
</svg>
