<svg width="143" height="143" viewBox="0 0 143 143" fill="none" xmlns="http://www.w3.org/2000/svg">
<path d="M71.5 143C110.988 143 143 110.988 143 71.5C143 32.0116 110.988 0 71.5 0C32.0116 0 0 32.0116 0 71.5C0 110.988 32.0116 143 71.5 143Z" fill="white"/>
<path d="M7.86129 63.9216C7.92023 63.3038 8.11751 62.7675 8.45314 62.3125C8.77911 61.8565 9.20596 61.5174 9.73368 61.295C10.2517 61.0717 10.8197 60.9895 11.4374 61.0484L11.6257 61.0664C12.2434 61.1253 12.7904 61.3139 13.2665 61.6321C13.7427 61.9502 14.1025 62.3644 14.3461 62.8747C14.5799 63.384 14.6674 63.9476 14.6085 64.5653L14.3805 66.9544L17.5948 67.261L17.2896 70.4609L7.32807 69.5105L7.86129 63.9216ZM12.0494 66.732L12.1751 65.4144C12.2074 65.0765 12.1444 64.8173 11.9863 64.6366C11.8292 64.4463 11.601 64.3368 11.3017 64.3083L11.1859 64.2972C10.877 64.2678 10.6323 64.3321 10.4516 64.4902C10.2622 64.6377 10.1514 64.8804 10.1191 65.2182L9.99342 66.5358L12.0494 66.732Z" fill="#0E0E0E"/>
<path d="M8.87325 57.4302L9.75979 54.3405L16.9178 56.3944L18.3339 51.4592L20.7944 52.1653L18.4918 60.1901L8.87325 57.4302Z" fill="#0E0E0E"/>
<path d="M24.6746 44.3869L23.2302 44.1003L21.5916 47.1989L22.6417 48.2313L21.105 51.1372L13.9656 43.2321L15.713 39.9277L26.2656 41.3782L24.6746 44.3869ZM19.9243 45.5604L20.9374 43.6446L17.2977 42.9046L17.2705 42.956L19.9243 45.5604Z" fill="#0E0E0E"/>
<path d="M30.8916 35.7673L28.8344 38.2423L25.8441 35.7569L18.588 34.8955L20.9523 32.0508L24.7457 32.7042L24.783 32.6594L23.447 29.0494L25.6904 26.3503L27.9013 33.2819L30.8916 35.7673Z" fill="#0E0E0E"/>
<path d="M40.0791 27.4664L31.5866 21.094L34.446 19.195L39.8195 23.6579L39.8679 23.6257L37.8505 16.9338L40.5888 15.1153L43.1808 25.4064L40.0791 27.4664Z" fill="#0E0E0E"/>
<path d="M47.4466 23.0467L43.2604 13.9577L46.1799 12.613L50.3662 21.702L47.4466 23.0467Z" fill="#0E0E0E"/>
<path d="M53.7544 9.92517C57.122 8.97031 59.2608 10.0974 60.1707 13.3065C61.0806 16.5156 59.8517 18.5975 56.484 19.5524L52.3141 20.7347L49.5844 11.1075L53.7544 9.92517ZM54.7519 17.549L55.7734 17.2594C57.0701 16.8917 57.5214 16.0129 57.1273 14.6229L56.8892 13.7834C56.4951 12.3934 55.6497 11.8822 54.353 12.2499L53.3315 12.5395L54.7519 17.549Z" fill="#0E0E0E"/>
<path d="M62.3316 7.94951L70.9598 7.28106L71.1452 9.67376L65.7218 10.0939L65.8285 11.4715L70.4689 11.112L70.6464 13.4032L66.006 13.7627L66.124 15.2854L71.6489 14.8573L71.8343 17.25L63.1046 17.9263L62.3316 7.94951Z" fill="#0E0E0E"/>
<path d="M79.668 7.84053C81.3767 8.06491 82.6392 8.67501 83.4557 9.67083C84.2721 10.6667 84.5707 11.9997 84.3513 13.67C84.132 15.3403 83.4994 16.5511 82.4536 17.3024C81.4077 18.0537 80.0304 18.3171 78.3217 18.0928C76.613 17.8684 75.3498 17.2631 74.5321 16.2769C73.7253 15.2823 73.4321 13.9451 73.6527 12.2652C73.8733 10.5853 74.5011 9.37383 75.5361 8.63089C76.582 7.87961 77.9593 7.61615 79.668 7.84053ZM79.356 10.2164C78.6744 10.1269 78.1289 10.2652 77.7196 10.6314C77.3102 10.9975 77.0595 11.5309 76.9675 12.2317L76.8464 13.1533C76.7544 13.854 76.8589 14.4341 77.1599 14.8935C77.4609 15.3529 77.9521 15.6274 78.6337 15.7169C79.3153 15.8064 79.8607 15.6681 80.2701 15.3019C80.6891 14.9371 80.9446 14.4042 81.0366 13.7035L81.1576 12.7819C81.2496 12.0812 81.1404 11.5004 80.8298 11.0398C80.5288 10.5804 80.0375 10.3059 79.356 10.2164Z" fill="#0E0E0E"/>
<path d="M111 21.0468C111.496 21.4192 111.851 21.8671 112.064 22.3908C112.284 22.9066 112.351 23.4477 112.265 24.0139C112.186 24.5724 111.96 25.0999 111.587 25.5964L111.474 25.7477C111.102 26.2441 110.656 26.6126 110.136 26.8531C109.616 27.0935 109.075 27.1847 108.513 27.1265C107.956 27.0606 107.43 26.8414 106.933 26.4691L105.013 25.0292L103.076 27.6123L100.504 25.6837L106.508 17.6783L111 21.0468ZM106.418 23.1558L107.477 23.9499C107.749 24.1536 108.003 24.235 108.239 24.1943C108.484 24.1594 108.696 24.0217 108.876 23.7812L108.946 23.6881C109.132 23.4399 109.205 23.1975 109.164 22.9609C109.137 22.7224 108.988 22.5013 108.716 22.2977L107.657 21.5035L106.418 23.1558Z" fill="#0E0E0E"/>
<path d="M115.929 25.2594L118.114 27.6059L112.678 32.6697L116.17 36.4177L114.301 38.1584L108.624 32.0639L115.929 25.2594Z" fill="#0E0E0E"/>
<path d="M118.929 45.5524L119.928 44.4702L118.14 41.4556L116.711 41.8124L115.035 38.9855L125.503 37.0217L127.409 40.2363L120.665 48.4794L118.929 45.5524ZM120.407 40.8887L121.513 42.7524L124.043 40.0345L124.013 39.9844L120.407 40.8887Z" fill="#0E0E0E"/>
<path d="M123.116 55.2992L122.061 52.2627L125.73 50.9887L130.212 45.2291L131.424 48.719L128.907 51.6253L128.926 51.6802L132.702 52.4012L133.852 55.7125L126.784 54.0252L123.116 55.2992Z" fill="#0E0E0E"/>
<path d="M125.443 67.4522L135.3 63.508L135.437 66.9378L128.831 69.2096L128.834 69.2677L135.599 71.0216L135.73 74.3061L125.591 71.1727L125.443 67.4522Z" fill="#0E0E0E"/>
<path d="M125.392 76.0543L135.335 77.1819L134.973 80.3757L125.03 79.2482L125.392 76.0543Z" fill="#0E0E0E"/>
<path d="M133.354 88.2469C132.428 91.6226 130.356 92.8693 127.14 91.9868C123.923 91.1044 122.778 88.9754 123.704 85.5997L124.85 81.4198L134.501 84.067L133.354 88.2469ZM126.314 85.1545L126.033 86.1784C125.677 87.4782 126.195 88.3192 127.589 88.7014L128.43 88.9323C129.823 89.3145 130.698 88.8557 131.055 87.5559L131.336 86.532L126.314 85.1545Z" fill="#0E0E0E"/>
<path d="M130.605 96.6108L126.705 104.337L124.563 103.255L127.014 98.3992L125.78 97.7766L123.683 101.932L121.632 100.896L123.729 96.7412L122.365 96.0531L119.868 101L117.726 99.9189L121.671 92.1022L130.605 96.6108Z" fill="#0E0E0E"/>
<path d="M121.722 111.431C120.652 112.777 119.481 113.543 118.21 113.73C116.939 113.917 115.645 113.487 114.329 112.441C113.013 111.395 112.302 110.231 112.197 108.951C112.092 107.67 112.575 106.356 113.645 105.01C114.715 103.664 115.882 102.895 117.146 102.702C118.411 102.523 119.706 102.96 121.029 104.012C122.353 105.064 123.066 106.223 123.17 107.49C123.275 108.771 122.792 110.085 121.722 111.431ZM119.85 109.943C120.277 109.406 120.439 108.868 120.336 108.33C120.234 107.792 119.906 107.303 119.354 106.864L118.628 106.287C118.076 105.848 117.526 105.639 116.978 105.661C116.431 105.682 115.944 105.961 115.517 106.498C115.09 107.035 114.928 107.573 115.031 108.111C115.127 108.657 115.452 109.149 116.004 109.588L116.73 110.165C117.282 110.604 117.835 110.809 118.389 110.78C118.936 110.759 119.424 110.48 119.85 109.943Z" fill="#0E0E0E"/>
<path d="M94.1908 131.443C93.6156 131.676 93.0487 131.749 92.4901 131.661C91.9352 131.583 91.4373 131.36 90.9964 130.995C90.5592 130.638 90.2242 130.173 89.9913 129.597L89.9203 129.422C89.6875 128.847 89.6023 128.275 89.6647 127.705C89.7272 127.136 89.9285 126.626 90.2687 126.174C90.6126 125.732 91.0722 125.394 91.6474 125.161L93.8719 124.26L92.6602 121.267L95.6397 120.061L99.3947 129.337L94.1908 131.443ZM94.7506 126.431L93.5238 126.928C93.2092 127.055 93.0082 127.231 92.9209 127.454C92.8247 127.681 92.8329 127.934 92.9457 128.213L92.9894 128.321C93.1058 128.608 93.2759 128.796 93.4995 128.883C93.7178 128.983 93.9842 128.969 94.2988 128.842L95.5256 128.345L94.7506 126.431Z" fill="#0E0E0E"/>
<path d="M87.9495 133.547L84.7989 134.184L83.3232 126.884L78.2907 127.902L77.7834 125.393L85.9665 123.738L87.9495 133.547Z" fill="#0E0E0E"/>
<path d="M69.1162 125.525L69.515 126.943L73.0198 126.999L73.4645 125.596L76.7511 125.649L72.9385 135.595L69.201 135.534L65.7132 125.47L69.1162 125.525ZM72.3145 129.228L70.1476 129.193L71.1369 132.773L71.195 132.774L72.3145 129.228Z" fill="#0E0E0E"/>
<path d="M58.5793 124.03L61.723 124.701L60.9129 128.499L63.5189 135.316L59.9059 134.545L58.723 130.887L58.6661 130.875L56.0937 133.732L52.6655 133.001L57.7692 127.828L58.5793 124.03Z" fill="#0E0E0E"/>
<path d="M46.9832 119.73L45.2413 130.203L42.2383 128.541L43.7228 121.715L43.6719 121.687L38.6626 126.561L35.7868 124.969L43.7257 117.926L46.9832 119.73Z" fill="#0E0E0E"/>
<path d="M39.6586 115.221L33.5241 123.127L30.9846 121.156L37.1191 113.251L39.6586 115.221Z" fill="#0E0E0E"/>
<path d="M25.0148 115.745C22.5995 113.19 22.6094 110.761 25.0444 108.46C27.4793 106.158 29.9044 106.285 32.3197 108.84L35.3104 112.004L28.0055 118.909L25.0148 115.745ZM31.3406 111.314L30.608 110.539C29.678 109.555 28.6857 109.561 27.631 110.558L26.9939 111.16C25.9392 112.157 25.8769 113.148 26.8069 114.132L27.5395 114.907L31.3406 111.314Z" fill="#0E0E0E"/>
<path d="M19.3496 109.012L14.763 101.656L16.8029 100.384L19.6859 105.008L20.8604 104.275L18.3936 100.319L20.347 99.1013L22.8137 103.057L24.1119 102.248L21.1748 97.5378L23.2147 96.2659L27.8554 103.708L19.3496 109.012Z" fill="#0E0E0E"/>
<path d="M11.2136 93.7329C10.6165 92.1135 10.5692 90.7099 11.0717 89.5222C11.5742 88.3345 12.6169 87.4488 14.1999 86.8651C15.7829 86.2814 17.1511 86.2782 18.3044 86.8554C19.4576 87.4326 20.3328 88.5309 20.9299 90.1503C21.527 91.7697 21.5789 93.1715 21.0855 94.3559C20.5796 95.5346 19.5306 96.4174 17.9385 97.0045C16.3464 97.5915 14.98 97.5993 13.8392 97.0278C12.6859 96.4506 11.8107 95.3523 11.2136 93.7329ZM13.4653 92.9027C13.7034 93.5486 14.0802 93.9677 14.5955 94.1601C15.1108 94.3525 15.7005 94.3262 16.3647 94.0813L17.2381 93.7593C17.9022 93.5144 18.3678 93.1516 18.6349 92.6707C18.902 92.1898 18.9164 91.6265 18.6782 90.9805C18.4401 90.3346 18.0633 89.9154 17.548 89.7231C17.0293 89.5216 16.4379 89.5433 15.7738 89.7882L14.9004 90.1102C14.2363 90.3551 13.7724 90.7225 13.5086 91.2125C13.2416 91.6933 13.2271 92.2567 13.4653 92.9027Z" fill="#0E0E0E"/>
<path d="M98.6162 71.5L57.9434 48.016V94.984L98.6162 71.5Z" fill="#0E0E0E"/>
</svg>
