<svg version="1.1" id="SIT_Strings" xmlns="http://www.w3.org/2000/svg" x="0" y="0" viewBox="0 0 371.9 284.3" width="86" height="65.75" xml:space="preserve" aria-label="SIT Strings Logo">
  <g id="S">
    <path class="dark-fill" d="M97 89.8C90.3 77 85.2 64.5 82.5 54.6c-3.3-12.4-2.8-20 1.7-23.4 5.6-4.2 12.8-4.4 17-4.1V14.6c-8.3-2.7-43.8-12.9-68.7 4.8-1.2 1-17.6 15.2-8.9 46.2 2 7 4.2 13.9 6.3 20.6 8.5 26.7 15.8 49.7 1.7 59.1-1 .8-7.6 5.3-20.4 5.5L9.5 165c6.5 1.7 26.2 6.4 43.8 6 21.5-.4 53.7-12 54.2-42v-.3c0-.1 1.5-15.7-10.5-38.9z"/>
    <path class="light-fill" d="M101.9 87.2c-16-30.9-18-48.8-14.3-51.6 6.1-4.6 15.7-2.7 15.8-2.7.8.2 1.7 0 2.3-.6.6-.5 1-1.3 1-2.1V12.7c0-1.1-.7-2.2-1.8-2.6-.5-.2-11.3-4.3-26.1-5.9C59.1 2.2 42 5.9 29.2 15c0 0-.1 0-.1.1-.9.7-20.7 16.9-10.9 52.1 2 7.1 4.2 14 6.3 20.8 7.8 24.6 14.6 45.8 3.8 52.9-.1 0-.1.1-.2.1s-6.3 4.8-19.4 4.4c-1.4 0-2.7 1-2.8 2.4l-2.3 19c-.2 1.3.7 2.6 2 3 1 .3 24 6.9 45.7 6.9h2.1c23.7-.5 59-13.5 59.6-47.3.2-2 1.3-18.3-11.1-42.2zm-17.7-56c-4.5 3.4-5 11-1.7 23.4C85.2 64.5 90.3 77 97 89.8c12 23.2 10.6 38.9 10.5 39v.3c-.4 30-32.6 41.5-54.2 42-17.6.4-37.3-4.3-43.8-6l1.7-14.1c12.7-.2 19.3-4.7 20.4-5.5 14.2-9.4 6.8-32.5-1.7-59.1-2.1-6.7-4.3-13.6-6.3-20.6-8.7-31 7.8-45.3 8.9-46.2 24.9-17.6 60.4-7.5 68.7-4.8v12.5c-4.2-.5-11.4-.2-17 3.9z"/>
    <path class="dark-fill" d="M115.5 156.9H107c5.8-7.2 9.5-16.3 9.7-27.5.2-2.8.9-19.9-11.5-43.9-14-27-16.8-43.8-15.2-47.1 4-2.8 10.5-2.3 12.6-1.9 1.9.4 3.9-.1 5.4-1.3 1.5-1.2 2.4-3.1 2.4-5V12.7c0-2.7-1.6-5.1-4.1-6-.5-.2-11.8-4.5-27-6.1-20.7-2.2-38.7 1.7-52.2 11.3-.1.1-.2.1-.3.2-.9.7-22.7 18.4-12.1 56 2 7.1 4.2 14.1 6.4 20.9 6.8 21.2 13.7 43.1 5.3 48.7-.2.2-.3.2-.4.3-.6.4-6 3.9-17 3.6-3.3-.1-6.2 2.4-6.6 5.7l-2.3 19c-.4 3.1 1.6 6.1 4.6 7 1 .3 24.5 7.1 46.8 7.1h2.1c14.6-.3 33.4-5.2 46.7-16.4v8.3c0 3 2.4 5.4 5.4 5.4h9.9c3 0 5.4-2.4 5.4-5.4v-9.9c-.1-3.1-2.6-5.5-5.5-5.5zm-62.1 19.7h-2.1c-21.7 0-44.7-6.6-45.7-6.9-1.3-.4-2.1-1.6-2-3l2.3-19c.2-1.4 1.4-2.5 2.8-2.4 13.1.4 19.4-4.3 19.4-4.4s.1-.1.2-.1c10.8-7.1 4-28.3-3.8-52.9-2.2-6.7-4.4-13.7-6.3-20.8C8.4 31.9 28.3 15.7 29.1 15l.1-.1C42 5.9 59.1 2.2 78.8 4.2c14.8 1.5 25.6 5.7 26.1 5.9 1.1.4 1.8 1.4 1.8 2.6v17.6c0 .8-.4 1.6-1 2.1-.7.5-1.5.7-2.3.6-.1 0-9.7-1.9-15.8 2.7-3.7 2.8-1.7 20.6 14.3 51.6 12.4 23.9 11.3 40.2 11.1 42-.5 33.8-35.9 46.8-59.6 47.3zm63.8-4.4c0 .9-.8 1.7-1.7 1.7h-9.9c-.9 0-1.7-.8-1.7-1.7v-9.9c0-.9.8-1.7 1.7-1.7h9.9c.9 0 1.7.8 1.7 1.7v9.9z"/>
    <path class="light-fill" d="M115.5 160.6h-9.9c-.9 0-1.7.8-1.7 1.7v9.9c0 .9.8 1.7 1.7 1.7h9.9c.9 0 1.7-.8 1.7-1.7v-9.9c0-.9-.8-1.7-1.7-1.7zm-1.4 9.3c0 .5-.4.9-.9.9h-5.3c-.5 0-.9-.4-.9-.9v-5.3c0-.5.4-.9.9-.9h5.3c.5 0 .9.4.9.9v5.3z"/>
    <path class="dark-fill no-swap" d="M113.2 163.7h-5.3c-.5 0-.9.4-.9.9v5.3c0 .5.4.9.9.9h5.3c.5 0 .9-.4.9-.9v-5.3c0-.5-.4-.9-.9-.9z"/>
  </g>
  <g id="I">
    <g>
      <path class="dark-fill no" d="M235.2,156.9h-9.9c-3,0-5.4,2.4-5.4,5.4v9.9c0,2.9,2.4,5.4,5.4,5.4h9.9c3,0,5.4-2.4,5.4-5.4v-9.9
        C240.6,159.3,238.2,156.9,235.2,156.9L235.2,156.9z"/>
      <path class="light-fill" d="M235.2,160.6c0.9,0,1.7,0.8,1.7,1.7v9.9c0,0.9-0.8,1.7-1.7,1.7h-9.9c-0.9,0-1.7-0.8-1.7-1.7v-9.9
        c0-0.9,0.8-1.7,1.7-1.7H235.2"/>
      <path class="dark-fill no-swap" d="M232.9,170.8h-5.3c-0.5,0-0.9-0.4-0.9-0.9v-5.3c0-0.5,0.4-0.9,0.9-0.9h5.3c0.5,0,0.9,0.4,0.9,0.9v5.3
        C233.8,170.4,233.4,170.8,232.9,170.8z"/>
    </g>
    <path class="dark-fill" d="M210.6,9.2c-0.2-3.5-3-6.2-6.4-6.2h-68c-3.5,0-6.3,2.8-6.5,6.2l-5,161.5c-0.1,1.8,0.6,3.4,1.8,4.7
      c1.2,1.2,2.9,2,4.6,2l80.2,0.1c1.8,0,3.4-0.7,4.7-2c1.2-1.3,1.9-3,1.8-4.8L210.6,9.2z"/>
    <path class="light-fill" d="M206.9,9.4c-0.1-1.5-1.3-2.6-2.8-2.6h-68c-1.5,0-2.7,1.2-2.8,2.7l-5,161.5c0,0.8,0.3,1.5,0.8,2
      c0.5,0.5,1.2,0.8,2,0.8l80.2,0.1c0.8,0,1.5-0.3,2-0.8c0.5-0.5,0.8-1.3,0.8-2L206.9,9.4z M166.1,62.3l-0.6-50h4.7L166.1,62.3z
      M172.9,12.3h2l-6.6,56.4L172.9,12.3z M177.6,12.3h2.6l-7,38.1L177.6,12.3z M151,12.3v156l-11.2,0l4.4-156H151z M138.8,12.3h2.7
      l-4.4,156l-3.1,0L138.8,12.3z M165.9,118.8l3.2,49.6l-3.2,0V118.8z M175.8,168.4l-0.4-4.2l0.7,4.2L175.8,168.4z M173.1,168.4
      l-1.3,0l-2-30.9L173.1,168.4z M178.8,168.4l-8.7-54l-0.6-5.5c0-0.3-0.2-0.6-0.4-0.8l-0.2-1.5c-0.1-0.7-0.8-1.2-1.5-1.1
      c-0.7,0.1-1.2,0.8-1.1,1.5l0.5,3.4c-0.3,0-0.6,0.2-0.8,0.3V109c0-0.7-0.6-1.4-1.4-1.4c-0.7,0-1.3,0.6-1.3,1.4v59.3l-9.5,0v-156h9.1
      l0.9,71.7c0,0.4,0.2,0.8,0.6,1.1l-0.1,1.3c-0.1,0.7,0.5,1.4,1.2,1.5c0,0,0.1,0,0.1,0c0.3,0,0.5-0.1,0.7-0.3
      c0.2,0.5,0.6,0.9,1.1,0.9c0,0,0.1,0,0.2,0c0.7,0,1.3-0.5,1.3-1.2L169,86c0.3-0.2,0.4-0.5,0.5-0.8L183,12.3h18.5l7,156.1
      L178.8,168.4z"/>
    <g id="Hand">
      <path class="light-fill no-swap" d="M124.6,32.2c0,0-8.3,4.5-8.9,7.4c0,0-0.7,4.8,0.3,8.3c0,0,1.6,7,1.1,9.2c0,0-1.2,5.9-1.3,7.6
        c0,0,1.1,6.8,2.3,9.1c0,0,3.6,10.8,3.4,17.9c0,0-0.3,13.2,1.2,15.6l4.9,7.9l1.8-51c0,0,8.2,2.5,13.4,0.5c0,0,9.5-4.2,11.3-7.9
        c0,0,1.9-3.6,1.6-7.8c0,0-0.7-4.8-5.8-9.1c0,0-6.6-5.4-8.5-7.1c0,0-2.4-3.6-5.5-3.7C135.9,29.3,128.6,30.2,124.6,32.2z"/>
      <g>
        <path class="light-fill no-swap" d="M136.4,58c-0.7,0-1.5-0.4-1.8-0.6c-2.2-1.1-3.3-2.6-3.3-2.7c-2.1-3.1-0.1-7.3-0.1-7.5c3-5.6,9.4-7.2,9.7-7.3
          c0.3-0.1,0.8-0.2,1.4-0.2c1.6,0,3.4,0.7,3.7,0.8c1.8,0.5,4,2.5,4.3,2.7c1,0.8,1.6,1.5,1.7,2.1c0.2,1.5-0.8,2.3-1.6,2.5
          c-1.7,0.4-4.5,2.2-5.4,2.9c-1.3,0.9-3.2,3-3.5,3.4c-1,1.6-2.1,2.5-2.4,2.7c-0.9,0.8-1.8,1.1-2.1,1.2
          C136.8,57.9,136.6,58,136.4,58L136.4,58z"/>
        <path class="dark-fill no-swap" d="M142.3,40.6c1.6,0,3.4,0.8,3.4,0.8c1.6,0.5,3.9,2.5,3.9,2.5c1.3,1,1.3,1.4,1.3,1.4c0.2,1.2-0.8,1.4-0.8,1.4
          c-2.2,0.5-5.8,3.1-5.8,3.1c-1.5,1-3.7,3.6-3.7,3.6c-1.1,1.7-2.3,2.5-2.3,2.5c-0.9,0.8-1.7,1-1.7,1c-0.1,0-0.2,0-0.2,0
          c-0.6,0-1.3-0.5-1.3-0.5c-2.1-0.9-3-2.3-3-2.3c-1.9-2.7,0-6.5,0-6.5c2.8-5.2,9-6.8,9-6.8C141.5,40.7,141.9,40.6,142.3,40.6
          M142.3,38.6c-0.6,0-1.2,0.1-1.7,0.2c-0.9,0.2-7.2,2.1-10.2,7.7l0,0l0,0c-0.1,0.2-2.3,4.9,0.1,8.5c0.1,0.2,1.2,1.8,3.6,3
          c0.4,0.3,1.3,0.8,2.3,0.8c0.3,0,0.5,0,0.8-0.1c0.4-0.1,1.5-0.4,2.5-1.3c0.4-0.3,1.5-1.2,2.6-2.8c0.6-0.7,2.2-2.4,3.2-3.1l0,0l0,0
          c1.2-0.9,3.7-2.5,5-2.8l0,0l0,0c1.4-0.3,2.6-1.7,2.3-3.6c-0.1-0.9-0.8-1.8-2.1-2.7c-0.6-0.5-2.7-2.2-4.5-2.8
          C145.8,39.3,144,38.6,142.3,38.6L142.3,38.6z"/>
      </g>
      <path class="light-fill no-swap" d="M224.4,20.5c1.9,0,2.8,0.6,3,0.7c0.1,0.1,0.1,0.1,0.2,0.2c1.3,0.9,3.2,4.2,4.2,6.4c0,0,0,0.1,0,0.1
        c0.9,1.7,0.8,3.8,0.8,3.8c-0.2,3.1-2.3,9.2-3.1,11.4c-0.4,0.8-1.5,3.7-1.6,3.8c0,0.1-0.1,0.3-0.1,0.4c-0.2,1-0.3,3.8-0.4,4.3
        c0,0.1,0,0.2,0,0.2c0,0.8-0.1,2.5-0.2,3.4c-0.1,0.6,0.1,1.3,0.6,1.7c0.4,0.4,0.9,0.6,1.4,0.6c0.1,0,0.2,0,0.4,0c0,0,0.1,0,0.2,0
        c0.9,0,2.7,0.4,3.6,0.6c3.7,1.1,8,4.2,8,4.3c0,0,0.1,0,0.1,0.1c4.3,2.8,5.6,7.3,5.6,7.3c0,0.1,0,0.1,0,0.2c1.1,2.9,0,6.7,0,6.7
        c0,0.1,0,0.1,0,0.2c-0.6,3.1-4.4,6.3-5.8,7.3c-0.7,0.4-1,1.2-0.8,2c0.1,0.8,0.8,1.4,1.5,1.6c0.9,0.2,3.9,2.1,6.2,3.8
        c0,0,0,0,0.1,0.1c2.9,1.9,2.8,6.7,2.8,6.7s0,0.1,0,0.1c0.1,4.4-3,9.9-3,9.9c-0.3,0.6-0.4,1.2-0.1,1.8c0.3,0.6,0.8,1,1.4,1.1
        c1.2,0.2,3.3,1.5,4.4,2.3c2.9,1.9,4,5.1,4.1,5.4c1.9,7.2-1,11.2-1.1,11.2c-2.5,3.2-7.2,5.1-7.2,5.1c-2.1,0.6-3.4,0.6-3.7,0.6
        c-0.1,0-0.5,0.2-0.7,0.2c-0.6,0-1.4-0.4-1.8,0.2c-1.9,3.2-4.7,3.9-4.8,3.9c-0.1,0-0.3,0.3-0.4,0.3c-2,0.6-4.4,2.1-4.7,2.2
        c-0.3,0.2-0.5,0.2-0.6,0.5c-0.5,0.7-2.2,2.1-3,2.8c-1.9,1.6-4.4,3.8-4.8,4.2c-1.5,1.1-4,2.2-4,2.2c-0.5,0.2-1,0.4-1.2,0.9
        c-0.5,1.1-1.7,4.9-2.9,4l-2-40.5l0.1-4.2c0-0.7-0.4-1.3-1.1-1.7c-0.3-0.1-0.2,0.5-0.5,0.5c-0.4,0-0.7,0.1-1,0.2
        c-0.6,0.3-3.6,0.7-6.1,1.2c-2.8,0.4-9.2,1.4-10,1.5c-2.2,0.1-7.2,0.5-7.5,0.5c-4.3,0.5-9.3,1.7-9.5,1.8c-4,1.3-8.5,2-8.9,2
        c-1.9-0.1-2.7-1.2-2.9-1.6c0-0.5-0.2-0.8-0.6-1.2c-0.3-0.3-0.8,0.2-1.2,0.1c-0.1-0.1-0.8-0.7-0.9-0.8c-1.4-2-2.3-6.6-2.6-8.1
        c-0.7-4,2.7-6.4,2.8-6.5c0.4-0.4,0.4-0.9,0.4-1.4c-0.1-0.4,0.1-0.7,0.1-0.8c0.1-0.7,0.9-1.3,0.6-2c-0.3-0.7-1.2-0.4-1.9-0.7
        c-1-0.1-2.1-2.2-2.7-3.5c-1.5-3.3-2.1-6.5-1.6-6.7c0-0.1,0.7-0.2,0.7-0.3c0.1-1.5,0.8-2.4,0.8-2.4c0.3-0.3,1.5-1,2.6-1.4
        c0.8-0.4,1.3-1.2,1.2-2.1c0-0.1,0.1-0.3,0.2-0.4c0,0,0-0.1,0.1-0.1c0.3-0.3,1.4-1.1,2.5-1.7c1.9-1,9.7-4.7,9.8-4.8
        c0.5-0.2,0.9-0.7,1-1.2c0.2-0.5,0-0.5-0.2-1c-0.6-0.1-1.4-3-1.7-3.6c-0.8-2.3,0.6-4,0.8-4.1c0.3-0.7,0.3-1.5-0.2-2.3
        c-1.3-2.1,1-4.4,1-4.5s0.1-0.2,0.2-0.3c0.5-0.9,3.5-4.2,6.1-6.9c2.3-2.2,7.9-8.9,8.1-9.2c0-0.1,0.1-0.1,0.1-0.2
        c0.5-0.7,3.2-4.8,3.5-5.3c1.3-1.8,3.9-3.3,3.9-3.3l3.4-2c0,0,0,0,0.1,0c0.9-0.6,2.4-1.7,2.7-1.9c1.4-0.9,3.9-2,4-2l3.6-1.5
        c0,0,0,0,0.1,0c2.9-1.3,7.3-2.5,7.7-2.6C222.9,20.6,223.7,20.5,224.4,20.5"/>
      <path class="dark-fill no-swap" d="M259.9,118.6c0,0-1.2-4-4.9-6.5c0,0-3.1-2.2-5.1-2.6c0,0,3.4-6,3.2-11c0,0,0.2-5.9-3.7-8.5c0,0-5.1-3.7-7-4.2
        c0,0,5.7-3.9,6.6-8.6c0,0,1.2-4.4-0.1-8c0,0-1.5-5.2-6.5-8.5c0,0-4.6-3.3-8.6-4.6c0,0-2.6-0.7-4.2-0.7c-0.2,0-0.4,0-0.6,0
        c0,0,0.3-2.6,0.2-3.8c0,0,0.1-2.5,0.3-4.1c0,0,1.2-3.1,1.6-3.8c0,0,3-8,3.2-12.1c0,0,0.2-2.6-1-4.8c0,0-2.5-5.7-4.9-7.2
        c0,0-1.3-1.2-4.3-1.2c-0.8,0-1.7,0.1-2.8,0.3c0,0-4.8,1.2-8.1,2.7l-3.6,1.5c0,0-2.7,1.2-4.3,2.2c0,0-1.8,1.3-2.7,1.9l-3.4,2
        c0,0-2.9,1.8-4.5,3.9c0,0-3,4.6-3.5,5.3c0,0-5.7,6.9-8,9.1c0,0-5.6,5.7-6.5,7.3c0,0-2.6,3.3-0.5,6.7c0,0-2.5,2.5-1.1,6.2
        c0,0,1.4,2.7,1.7,3.2c0,0-7.9,3.7-9.9,4.8c0,0-2.7,1.5-3.2,2.4c0,0-0.7,1-0.5,1.8c0,0-2.6,1.1-3.3,1.9c0,0-1.2,1.3-1.3,3.7
        c0,0-0.6,3.8,1.2,7.7c0,0,1.8,4.1,4.5,4.2c0,0-0.6,0.8-0.6,1.9c0,0-3.7,3.5-2.7,8.6c0,0,0.9,5.9,3.1,8.7c0,0,1.1,1,1.5,1
        c0,0,0.3,2.5,4.8,2.7c0,0,5,0,9.6-1.5c0,0,5.1-1.8,9.3-2.2c0,0,4.9-0.5,7-0.6c0,0,7-0.9,10-1.3c0,0,4.7-0.8,6.4-1.5
        c0.1,0,2.3-0.6,2.3-0.6c2.9-0.9,6.2-2,6.4-2.1c4.3-1.5,10.7-1.5,10.8-1.5c9.5,0.1,16,2.1,16.1,2.1c0.1,0,3.2,1.1,5.5,2.7
        c2.8,2,4,5.1,4.1,5.4c1.9,7.2-0.9,10.5-1,10.6c0,0.1-0.1,0.1-0.1,0.2c-2.5,3.2-7.9,4.9-7.9,4.9c-2.6,0.9-4,0.6-4,0.7
        c-2.6-0.6-11-3.2-13.6-4.2c-0.1-0.1-3.5-1.5-8.7-1.8c-0.2,0-3.8-0.2-6.5-0.3l0.1,2c2.7,0,6.3,0.2,6.3,0.2c4.8,0.3,8,1.6,8,1.7
        c2.8,1.2,11.6,3.8,12,3.9c0,0,0.2,0.1,0.5,0.2c-1.9,2.5-4.3,3-4.4,3c-0.1,0-0.2,0-0.3,0.1c-2,0.6-4.6,2.2-4.8,2.4
        c-0.3,0.2-0.5,0.4-0.6,0.6c-0.5,0.7-2,2.2-2.8,2.9c-1.9,1.6-4.5,3.8-4.9,4.1c-1.5,1.1-3.9,2.1-3.9,2.1c-0.5,0.2-0.9,0.6-1.1,1.1
        c-0.5,1.1-1.9,2.6-2.7,3.5l0.1,2.8c0.3-0.3,0.6-0.6,0.8-0.8c0,0,2.7-2.6,3.7-4.7c0,0,2.7-1.1,4.4-2.3c0,0,2.9-2.4,5-4.2
        c0,0,2.4-2.1,3.2-3.4c0,0,2.6-1.6,4.4-2.2c0,0,3.8-0.6,6.3-4.7c0,0,0.1,0,0.2,0c0.5,0,1.7-0.1,4-0.8c0,0,6.1-1.8,9-5.6
        C258.4,131.1,262.1,127.1,259.9,118.6z M178.8,55.8c0.5-0.9,3.5-4.2,6.1-6.9c2.3-2.2,7.9-8.9,8.1-9.2c0-0.1,0.1-0.1,0.1-0.2
        c0.5-0.7,3.2-4.8,3.5-5.3c1.3-1.8,3.9-3.3,3.9-3.3l3.4-2c0,0,0,0,0.1,0c0.9-0.6,2.4-1.7,2.7-1.9c1.4-0.9,3.9-2,4-2l3.6-1.5
        c0,0,0,0,0.1,0c2.9-1.3,7.3-2.5,7.7-2.6c0.8-0.2,1.6-0.3,2.3-0.3c1.9,0,2.8,0.6,3,0.7c0.1,0.1,0.1,0.1,0.2,0.2
        c1.3,0.9,3.2,4.2,4.2,6.4c0,0,0,0.1,0,0.1c0.9,1.7,0.8,3.8,0.8,3.8c-0.2,3.1-2.3,9.2-3.1,11.4c-0.4,0.8-1.5,3.7-1.6,3.8
        c0,0.1-0.1,0.3-0.1,0.4c-0.2,1-0.3,3-0.4,3.6c0,0.1,0,0.9,0,1c0,0.8-0.1,2.5-0.2,3.4c0,0.1,0,0.2,0,0.3c-1.5,0.2-4.8,0.8-7.9,1.8
        c-0.2,0.1-4.2,1.6-6.6,2.7c0,0-3.6,1.4-6,2.2c1-1.7,2.1-2.9,2.1-2.9c2.1-2.3,7-6.1,7.1-6.1c4-3,8-7.4,8.1-7.6
        c3.9-3.9,4.4-10.9,4.4-11.2c0-0.6-0.4-1-0.9-1.1c-0.5,0-1,0.4-1.1,0.9c0,0.1-0.4,6.6-3.8,9.9c0,0-4,4.4-7.8,7.3
        c-0.2,0.2-5.2,3.9-7.4,6.3c-0.1,0.1-2.1,2.3-3.2,5c-2.1,0.4-6.1,1.3-7.5,1.6c-0.1,0-0.3,0.1-0.7,0.2c-0.9-2.8-3.1-6.2-3.2-6.3
        c-2.4-3.7-6.3-3.2-7-3c-2.9,0.1-6.2,2.9-7.7,4.4C177.2,58,178.8,55.9,178.8,55.8z M178.6,61.9c0,0,4.7-4.3,7.2-4.4
        c0,0,3.4-0.6,5.2,2.1c0.7,1,2.3,3.7,2.9,5.7c-3.7,1-10.5,3-14.9,4.8c0-0.1,0-0.2-0.1-0.2c-0.2-0.5-1.3-2.5-1.6-3.1
        C176.5,64.6,178.1,62.4,178.6,61.9z M165.7,79.2C165.7,79.2,165.7,79.2,165.7,79.2c0.3-0.4,1.5-1.2,2.5-1.8c1.9-1,9.8-4.7,9.9-4.7
        c5.8-2.7,18.8-6.1,18.9-6.1c1.4-0.3,8.8-1.9,8.8-1.9c2.2-0.6,7.4-2.6,7.6-2.7c2.4-1.1,6.5-2.6,6.5-2.6c3.8-1.3,8.3-1.7,8.4-1.7
        c0.1,0,2.5-0.2,5,0.6c3.7,1.2,8,4.2,8,4.3c0,0,0.1,0,0.1,0.1c4.3,2.8,5.6,7.3,5.6,7.3c0,0.1,0,0.1,0,0.2c1.1,2.9,0,6.7,0,6.7
        c0,0.1,0,0.1,0,0.2c-0.6,3.1-4.4,6.3-5.8,7.3c-0.4,0.2-0.8,0.9-0.8,0.9c-0.4-0.1-10-3.7-24.1-0.8c-0.1,0-9.1,2.2-12.5,2.7
        c-0.1,0-7.8,1.4-13.5,3c-0.4,0.1-8.8,1.6-13.9,2.9c0.5-1.5,0.5-2.9,0.5-3c0.2-2.7-1.1-7.1-1.1-7.2c-1-3.8-4.4-4.3-6.1-4
        c-1.8,0.2-3.2,0.4-4.1,0.6C165.6,79.3,165.6,79.2,165.7,79.2z M164.4,95.5c-0.9-0.4-2.1-1.9-2.6-3.2c-1.5-3.3-1-6.6-1-6.6
        c0-0.1,0-0.1,0-0.2c0.1-1.5,0.8-2.4,0.8-2.4c0.3-0.3,1.2-1,2.6-1.4c0.1,0,2.6-0.6,5.7-0.9c0.3-0.1,3.1-0.4,3.9,2.5
        c0,0,1.2,4.2,1,6.6c0,0.9-0.2,3.4-1.7,3.9c0,0-4.2,1.5-7,1.9C166.1,95.7,164.9,95.8,164.4,95.5z M166.6,115.8
        c-0.1,0-0.2-0.1-0.4-0.1c-0.1-0.1-0.3-0.2-0.5-0.4c-1.4-2-2.4-6.2-2.6-7.7c-0.4-2.5,0.5-4.5,1.2-5.7c0.1,0,3.2-1.4,8-1.3
        c0.1,0,3.3,0.1,4.1,3.5c0.5,2.3,0.7,6.1-0.3,7.2l-0.1,0.1c0,0-2.2,3.1-9.3,4.2C166.7,115.7,166.6,115.7,166.6,115.8z M248.1,108.5
        c-0.1,0.1-0.1,0.2-0.1,0.3c-2.2-0.6-8-1.9-15.7-1.9c-0.3,0-6.9,0-11.5,1.6c0,0-9.3,2.9-9.4,3c-1.2,0.3-3.4,0.8-5.3,1.1
        c-2.8,0.4-9,1.2-9.8,1.3c-2.2,0.1-6.8,0.6-7,0.6c-4.3,0.5-9.5,2.3-9.7,2.3c-4,1.3-8.5,1.4-8.9,1.4c-1.6-0.1-2.4-0.5-2.7-0.8
        c6.8-1.2,9.4-4.4,9.8-4.9c2.1-2.3,0.9-8.2,0.8-8.9c-0.9-3.9-4.4-5.1-6-5.1c-2.8-0.1-5,0.3-6.5,0.7v0c0-0.4,0.4-1.3,0.6-1.6
        c3.1-0.4,7.2-1.9,7.4-2c0.1,0,0.4-0.1,0.6-0.1c3.8-1.3,16-3.5,16.2-3.6c5.8-1.6,13.4-3,13.5-3c3.4-0.6,12.2-2.7,12.6-2.8
        c13.5-2.8,22.9,0.7,23,0.7c0.3,0.1,1.4,0.5,2.2,0.9c0.8,0.4,3.9,2.1,6.2,3.8c0,0,0,0,0.1,0.1c2.9,1.9,2.8,6.7,2.8,6.7s0,0.1,0,0.1
        C251.2,103,248.1,108.5,248.1,108.5z"/>
      <path class="dark-fill no-swap" d="M154.5,43.8c0,0-4.2-4.7-6-6.3c0,0-5.1-4.3-6.3-5.5c0,0-3-3.9-7.1-3.8c0,0-2.1-0.2-8.2,1.8
        c0,0-7.1,2.6-9.4,5.3c0,0-3.8,3.7-3.3,8.6c0,0,0.7,4,1,5.6c0,0,1.4,6.1,0.2,10.3c0,0-1.4,6-0.5,8c0,0,1.6,5.1,2.7,8.1
        c0,0,2.1,5.1,2.5,14.3c0,0-0.2,10.4,0.9,14.8c0,0,1.8,6.6,5.3,11l0.1-3.6c-1.6-1.7-3-6.2-3-6.2c-0.8-1.9-1.2-9.9-1.2-9.9
        c0.1-6.8-1.1-15.5-1.1-15.5c-0.5-4.2-4.3-13.7-4.3-13.7c-0.4-0.9-0.3-2-0.1-3c0.1-1.2,0.5-2.5,0.5-2.5c0.2-0.7,0.4-2.5,0.4-2.5
        c0.8-4.5-0.4-10-0.4-10c-0.5-2.3-1.1-4.8-1-6.6c0.2-2.9,1.5-4.4,1.5-4.4c1.6-2.1,6.7-4.9,8.4-5.6c2.2-0.9,7.3-1.9,7.3-1.9
        c3.5-0.7,5.8,1.3,5.8,1.3l2,2.1c1.4,1.5,5.2,4.2,5.2,4.2c2.4,1.7,6.4,6.3,6.4,6.3c0.8,0.7,1.7,3.3,1.7,3.3c1.3,5.1-1.9,9-1.9,9
        c-3.2,4.5-9.1,6.8-9.1,6.8c-7.1,3-12.4-0.5-12.4-0.5c-3.3-1.8-6.8-7.2-6.8-7.2c-1.2-2.3-2.1-1.5-2.1-1.5c-0.9,0.8-0.7,1.2,0.8,3.4
        c1.8,2.7,5,5.4,5,5.4s0.7,0.6,1.4,1.1c0,0,3,2.5,7.9,2.6c0,0,7.1,0.4,13.9-5.6c0,0,5.5-4.9,5.6-10.3
        C156.9,50.9,157.2,46.6,154.5,43.8z"/>
    </g>
  </g>
  <g id="T">
    <path class="dark-fill" d="m352.2 25.8-1.1-16.7c-.2-3.4-3-6-6.4-6H231.3c-1.8 0-3.4.7-4.6 2-1.2 1.3-1.9 3-1.8 4.7l.7 16.7c.1 3.5 3 6.2 6.4 6.2h17.6l8.4 138.8c.2 3.4 3 6.1 6.4 6.1l70.9.1c1.8 0 3.5-.8 4.8-2.1 1.2-1.3 1.8-3.1 1.7-4.9l-12-138h16c1.8 0 3.5-.7 4.7-2 1.2-1.4 1.8-3.1 1.7-4.9zM359.6 156.9h-9.9c-3 0-5.4 2.4-5.4 5.4v9.9c0 2.9 2.4 5.4 5.4 5.4h9.9c3 0 5.4-2.4 5.4-5.4v-9.9c-.1-3-2.5-5.4-5.4-5.4z"/>
    <path class="light-fill" d="M359.6 160.6c.9 0 1.7.8 1.7 1.7v9.9c0 .9-.8 1.7-1.7 1.7h-9.9c-.9 0-1.7-.8-1.7-1.7v-9.9c0-.9.8-1.7 1.7-1.7h9.9"/>
    <path class="dark-fill no-swap" d="M357.3 170.8H352c-.5 0-.9-.4-.9-.9v-5.3c0-.5.4-.9.9-.9h5.3c.5 0 .9.4.9.9v5.3c0 .5-.4.9-.9.9z"/>
    <path class="light-fill" d="m335.4 174-70.9-.1c-1.5 0-2.7-1.1-2.8-2.6L253.1 29H232c-1.5 0-2.7-1.2-2.8-2.7l-.7-16.7c0-.8.2-1.5.8-2 .5-.5 1.2-.8 2-.8h113.3c1.5 0 2.7 1.1 2.8 2.6l1.1 16.7c0 .8-.2 1.5-.7 2.1s-1.2.9-2 .9h-20l12.4 142c.1.8-.2 1.5-.7 2.1-.6.4-1.4.8-2.1.8zm-68.3-5.7 65.2.1L320 26.5c-.1-.8.2-1.5.7-2.1s1.3-.9 2-.9h20.1l-.8-11.2H234.2l.5 11.2h21c1.5 0 2.7 1.1 2.8 2.6l8.6 142.2z"/>
  </g>
  <g id="Strings">
    <path class="dark-fill" d="M199.6 215.1c1.5-1.4 3-3.1 3-3.1s4.2-4-2.4-4.2c-6.5-.2-5.9 6.5-4.5 7.7 1.3 1.2 1.7 1.7 3.9-.4z"/>
    <path class="dark-fill" d="M289.4 236.3c-.7.3-1.6 1.5-2 1.9-2 2.8-6.2 3.5-6.2 3.5.3-.7.5-1.3.7-2 .4-1.4 1.1-3.6 1.5-5.7 1.8-11.4-5.7-14.2-6.5-10.6-1 4.4-7.9 10.7-7.9 10.7-5.9 5.7-11 8.9-15.8 11.4 3.6-7.1 5.6-12.8 5.5-14.6-.2-3.4-3 0-3.7-1.3-.7-1.3-3-1.3-3-1.3-2.9.2-6.4 1.7-9.9 3.7-8.1 4.6-16.1 11.7-16.1 11.7-3 2.7 2.9-14.6-1.8-15.9-4.7-1.3-11.7 6-11.7 6-.7-8.7-9.2-2-9.2-2s-12.9 10.6-19.6 14.2c-6.7 3.7 3.2-11.6 6.4-13.1 2.5-1.2 3.5-4.7 0-7.5s-6 3.4-8.5 8.2c-2.5 4.9-9.4 8.7-14.1 11.2-4.7 2.5.2-8.4 3.5-11 3.4-2.7 2.2-6.5 1.7-6.9-.5-.3-2.2-1-1.2-2.9s.8-5.5-3.2-5.9c-4-.3-4 5.5-4 5.5-6.5 7-24 23.1-29.7 20.8-5.7-2.3 14.4-26.8 14.4-26.8 8.4-2.5 32.8-4.3 35.7-4.2 2.9.2 3-1.3 2.4-3-.7-1.7-.8-4.2-6.7-2.4-5.9 1.8-29 4.2-29 4.2 5.2-7.9-.5-10.1-1.5-6.4s-3 4.2-5.5 7-7.2 2.5-10.4 3.2c-3.2.7-3.4 1.2-3.7 3.7-.3 2.5.3 2.5 2.5 1.5s5.9-.7 5.9-.7c-3.9 4.7-7.2 10.6-10.1 15.1-2.9 4.5-17.3 5-17.3 5-1 .1-1.9.2-2.8.3 4.4-4.4 6.5-8 6.5-8 2.9-5.4 1.3-9.7-2.7-11.7s-15.8-5.4-22.8-7.2c-7-1.8-2.4-5.7-2.4-5.7 11.1-13.1 33.9-14.4 33.9-14.4 9.6-.7 10.9 5.4 8.4 8.2-2.5 2.9 1 4.5 1 4.5 5.2-.8 3.4-7.4.7-13.6-2.7-6.2-10.9-6-10.9-6-28.3 1.8-39.7 18.1-40.9 25.3-1.2 7.2 14.2 10 21.1 11.2 11.8 2 .9 14.6.9 14.6L98 242s-.6.7-1 1c-15 2.9-23.6 7.1-23.1 9.3.7 2.9 3.7 5.7 18.9-.7 3.2-1.4 6.1-3 8.6-4.7 1.5-.1 2.9-.3 4.3-.4 10.9-.7 21.6-6 21.6-6-.7 13.6 5.7 12.1 14.1 8 8.4-4 18.1-17.2 22-19.3 3.9-2 1.8 2 1.8 2s-9.2 12.9-3.7 18.6c5.5 5.7 16.8-8.2 16.8-8.2-3.2 6.9.2 10.5 5.2 8.5s14.4-12.1 20.3-15.1 1 5.4-1.7 7.4-2.4 6.5-2.4 6.5c-.8 5.5 1.2 5 12.1-9.2s9-2.9 7.5 8.4c-1.5 11.2 10.2-3.7 10.2-3.7s-.8 9.5 4.4 6.4c5.2-3.2 17.4-11.4 17.4-11.4-.9 2.9-2.1 5.8-3.5 8.6-4.9 2.3-9.7 4.6-14.8 8.8-13.5 11.1-12.2 21.5-11.4 24 .8 2.5 8.2-.7 19.1-15.2 3.6-4.9 6.9-10 9.6-14.8 11.7-7.2 23.9-17.4 26-19.9 2.5-3 3.4 4.4-1.4 10.9-4.7 6.5-5 3-8 3s-6.4 2-2.7 7.4 20.8-8.9 24.5-12.2c1.3-1.2 1.8-2.2 1.7-2.8.1-.6-.2-1.1-1-.9zM80.9 252c-.6-1 4-2.4 10-3.5-6.4 4.9-9.3 4.8-10 3.5zm147.3 22.1c-7.9 5.9.5-12.4 13.9-18.6.9-.4 1.9-.9 2.8-1.4-5.1 8.7-11.6 16.2-16.7 20zm6.6-27.4s.2-2.7 6.2-6.9c1.5-1.1 2.8-2 4-2.9 3.8-2.5 6.2-3.9 6.8-3.3 0 0-7.8 10.7-17 13.1z"/>
  </g>
  <path id="Registration" class="dark-fill" d="M365.3 10.5c1.1 0 2.2.3 3.3.8 1 .6 1.9 1.4 2.5 2.5.6 1.1.9 2.2.9 3.3 0 1.2-.3 2.3-.9 3.3-.6 1.1-1.4 1.9-2.5 2.5-1 .6-2.1.9-3.3.9s-2.3-.3-3.3-.9c-1-.6-1.9-1.4-2.5-2.5-.6-1-.9-2.2-.9-3.3 0-1.2.3-2.3.9-3.3.6-1.1 1.4-1.9 2.5-2.5 1-.6 2.1-.8 3.3-.8m0 1.3c-.9 0-1.8.2-2.6.7-.8.5-1.5 1.1-2 2-.5.8-.7 1.8-.7 2.7s.2 1.8.7 2.7c.5.8 1.1 1.5 2 2 .9.5 1.7.7 2.6.7.9 0 1.8-.2 2.7-.7.8-.5 1.5-1.1 2-2 .5-.8.7-1.7.7-2.7 0-.9-.2-1.8-.7-2.7-.5-.9-1.1-1.5-2-2-.9-.5-1.8-.7-2.7-.7m-3 8.8v-7h3.6c.5 0 .8.1 1.1.3.3.2.5.4.7.7.2.3.3.6.3 1 0 .5-.2.9-.5 1.3s-.8.6-1.4.7c.2.1.4.2.5.3l.5.5c0 .1.2.4.5.8l.8 1.4h-1.8l-.6-1.1c-.4-.8-.7-1.2-1-1.5-.3-.2-.6-.3-1-.3h-.4v2.9h-1.3zm1.4-4h.6c.8 0 1.3 0 1.5-.1s.4-.2.5-.3.2-.3.2-.5-.1-.4-.2-.5c-.1-.2-.3-.3-.5-.3-.2-.1-.7-.1-1.5-.1h-.6v1.8z"/>
</svg>
