<svg id="b9e31a11-aff9-42ee-a84a-8257678e9c04" data-name="Layer 1" xmlns="http://www.w3.org/2000/svg" xmlns:xlink="http://www.w3.org/1999/xlink" viewBox="0 0 780 600"><defs><clipPath id="b2a5cc13-f795-4ac4-9dc0-988fac730b1f"><rect width="1440" height="600" style="fill:none"/></clipPath></defs><g style="clip-path:url(#b2a5cc13-f795-4ac4-9dc0-988fac730b1f)"><path d="M670.94-168.28c-37.2,12.66-110.57,67.81-106.45,187.1,5.16,149.11,117.7,242.43,145.84,383.1,20.76,103.83,17.81,363.88-108.79,473.13" style="fill:none;stroke:#fff"/><path d="M612.22-176.46C575-163.8,501.65-108.66,505.77,10.63c5.16,149.11,117.7,242.43,145.84,383.1,20.76,103.83,17.81,363.88-108.79,473.13" style="fill:none;stroke:#fff"/><path d="M553-180c-37.2,12.66-110.57,67.8-106.45,187.09,5.16,149.12,117.7,242.43,145.83,383.1C613.19,494,610.24,754,483.64,863.29" style="fill:none;stroke:#fff"/><path d="M493.75-179.16c-37.2,12.66-110.57,67.8-106.44,187.09C392.47,157,505,250.36,533.14,391,553.91,494.86,551,754.91,424.35,864.16" style="fill:none;stroke:#fff"/><path d="M434.68-174.09C397.48-161.43,324.11-106.29,328.24,13c5.16,149.12,117.69,242.43,145.83,383.11C494.83,499.93,491.89,760,365.28,869.24" style="fill:none;stroke:#fff"/><path d="M376.08-165.08C338.88-152.41,265.51-97.27,269.64,22c5.16,149.11,117.7,242.43,145.83,383.1C436.24,509,433.29,769,306.68,878.25" style="fill:none;stroke:#fff"/><path d="M318.17-152.38C281-139.71,207.6-84.57,211.73,34.72c5.15,149.12,117.69,242.43,145.83,383.1C378.32,521.65,375.38,781.7,248.77,891" style="fill:none;stroke:#fff"/><path d="M261.12-136.23c-37.2,12.66-110.57,67.8-106.44,187.1C159.83,200,272.37,293.29,300.51,434c20.76,103.82,17.82,363.87-108.79,473.13" style="fill:none;stroke:#fff"/><path d="M205.1-116.84C167.9-104.18,94.53-49,98.66,70.25c5.16,149.12,117.7,242.43,145.83,383.1,20.77,103.83,17.82,363.88-108.79,473.14" style="fill:none;stroke:#fff"/><path d="M150.62-94.52C113.42-81.86,40.05-26.71,44.17,92.58,49.33,241.69,161.87,335,190,475.68c20.77,103.83,17.82,363.88-108.78,473.13" style="fill:none;stroke:#fff"/><path d="M99.79-65.72C62.59-53.06-10.78,2.09-6.65,121.38c5.16,149.11,117.7,242.43,145.83,383.1C160,608.31,157,868.36,30.39,977.61" style="fill:none;stroke:#fff"/><path d="M45.58-50.47C8.38-37.81-65,17.34-60.86,136.63-55.7,285.74,56.83,379.05,85,519.73,105.73,623.56,102.79,883.6-23.82,992.86" style="fill:none;stroke:#fff"/><path d="M-13.71-64c-37.2,12.66-110.57,67.8-106.45,187.09C-115,272.19-2.46,365.5,25.68,506.17,46.44,610,43.49,870.05-83.11,979.31" style="fill:none;stroke:#fff"/></g></svg>