<svg xmlns="http://www.w3.org/2000/svg" viewBox="0 0 780 600" width="780" height="600">
  <defs>
    <clipPath id="wave-right-clip">
      <path fill="none" d="M-660 0H780v600H-660z"/>
    </clipPath>
  </defs>
  <g clip-path="url(#wave-right-clip)" fill="none" stroke="#fff">
    <path d="M817.58-333.39c-37.2 12.66-110.57 67.81-106.44 187.1C716.29 2.82 828.83 96.14 857 236.81c20.76 103.83 17.81 363.88-108.79 473.13"/>
    <path d="M762.37-338.47c-37.2 12.66-110.57 67.81-106.45 187.1 5.16 149.11 117.7 242.42 145.83 383.1C822.52 335.56 819.57 595.6 693 704.86"/>
    <path d="M707.38-326.61c-37.2 12.66-110.57 67.81-106.45 187.1 5.16 149.11 117.7 242.42 145.83 383.1C767.53 347.41 764.58 607.46 638 716.72"/>
    <path d="M647.38-335.12c-37.2 12.66-110.57 67.81-106.45 187.1 5.16 149.11 117.7 242.43 145.83 383.1C707.53 338.91 704.58 599 578 708.21"/>
    <path d="M592.46-326c-37.2 12.66-110.57 67.8-106.46 187.1 5.16 149.11 117.7 242.42 145.83 383.1 20.78 103.8 17.83 363.87-108.77 473.13"/>
    <path d="M541.78-295.23c-37.2 12.66-110.57 67.81-106.44 187.1C440.5 41 553 134.3 581.17 275 601.94 378.8 599 638.85 472.39 748.1"/>
    <path d="M490.34-265.75c-37.2 12.66-110.57 67.8-106.44 187.09 5.16 149.12 117.69 242.43 145.83 383.11 20.76 103.82 17.82 363.87-108.79 473.13"/>
    <path d="M438.18-237.57C401-224.9 327.61-169.76 331.74-50.47 336.89 98.64 449.43 192 477.57 332.63c20.76 103.83 17.82 363.88-108.79 473.13"/>
    <path d="M385.31-210.73c-37.2 12.66-110.56 67.81-106.44 187.1C284 125.48 396.57 218.8 424.7 359.47c20.77 103.83 17.82 363.88-108.79 473.13"/>
    <path d="M331.74-185.33c-37.2 12.66-110.57 67.8-106.44 187.09 5.16 149.12 117.7 242.43 145.83 383.1C391.89 488.69 388.94 748.74 262.34 858"/>
    <path d="M277.44-161.52C240.24-148.86 166.87-93.72 171 25.57 176.16 174.69 288.7 268 316.83 408.68 337.59 512.5 334.65 772.55 208 881.81"/>
    <path d="M222.41-139.48C185.2-126.81 111.84-71.67 116 47.62c5.16 149.12 117.7 242.43 145.83 383.1C282.56 534.55 279.61 794.6 153 903.85"/>
    <path d="M166.61-119.42C129.41-106.76 56-51.62 60.17 67.67 65.32 216.79 177.86 310.1 206 450.77c20.76 103.83 17.82 363.88-108.79 473.14"/>
  </g>
</svg>
