<svg id="a230a22e-c4a7-4e91-bc83-054795394bfc" data-name="Layer 1" xmlns="http://www.w3.org/2000/svg" xmlns:xlink="http://www.w3.org/1999/xlink" viewBox="0 0 780 600"><defs><clipPath id="a5517e64-df13-4171-900a-4d8fb3abf94e"><rect x="-660" width="1440" height="600" style="fill:none"/></clipPath></defs><g style="clip-path:url(#a5517e64-df13-4171-900a-4d8fb3abf94e)"><path d="M817.58-333.39c-37.2,12.66-110.57,67.81-106.44,187.1C716.29,2.82,828.83,96.14,857,236.81c20.76,103.83,17.81,363.88-108.79,473.13" style="fill:none;stroke:#fff"/><path d="M762.37-338.47c-37.2,12.66-110.57,67.81-106.45,187.1,5.16,149.11,117.7,242.42,145.83,383.1C822.52,335.56,819.57,595.6,693,704.86" style="fill:none;stroke:#fff"/><path d="M707.38-326.61c-37.2,12.66-110.57,67.81-106.45,187.1,5.16,149.11,117.7,242.42,145.83,383.1C767.53,347.41,764.58,607.46,638,716.72" style="fill:none;stroke:#fff"/><path d="M647.38-335.12c-37.2,12.66-110.57,67.81-106.45,187.1,5.16,149.11,117.7,242.43,145.83,383.1C707.53,338.91,704.58,599,578,708.21" style="fill:none;stroke:#fff"/><path d="M592.46-326C555.26-313.34,481.89-258.2,486-138.9c5.16,149.11,117.7,242.42,145.83,383.1C652.61,348,649.66,608.07,523.06,717.33" style="fill:none;stroke:#fff"/><path d="M541.78-295.23c-37.2,12.66-110.57,67.81-106.44,187.1C440.5,41,553,134.3,581.17,275,601.94,378.8,599,638.85,472.39,748.1" style="fill:none;stroke:#fff"/><path d="M490.34-265.75c-37.2,12.66-110.57,67.8-106.44,187.09,5.16,149.12,117.69,242.43,145.83,383.11,20.76,103.82,17.82,363.87-108.79,473.13" style="fill:none;stroke:#fff"/><path d="M438.18-237.57C401-224.9,327.61-169.76,331.74-50.47,336.89,98.64,449.43,192,477.57,332.63c20.76,103.83,17.82,363.88-108.79,473.13" style="fill:none;stroke:#fff"/><path d="M385.31-210.73c-37.2,12.66-110.56,67.81-106.44,187.1C284,125.48,396.57,218.8,424.7,359.47,445.47,463.3,442.52,723.35,315.91,832.6" style="fill:none;stroke:#fff"/><path d="M331.74-185.33c-37.2,12.66-110.57,67.8-106.44,187.09C230.46,150.88,343,244.19,371.13,384.86,391.89,488.69,388.94,748.74,262.34,858" style="fill:none;stroke:#fff"/><path d="M277.44-161.52C240.24-148.86,166.87-93.72,171,25.57,176.16,174.69,288.7,268,316.83,408.68,337.59,512.5,334.65,772.55,208,881.81" style="fill:none;stroke:#fff"/><path d="M222.41-139.48C185.2-126.81,111.84-71.67,116,47.62c5.16,149.12,117.7,242.43,145.83,383.1C282.56,534.55,279.61,794.6,153,903.85" style="fill:none;stroke:#fff"/><path d="M166.61-119.42C129.41-106.76,56-51.62,60.17,67.67,65.32,216.79,177.86,310.1,206,450.77,226.76,554.6,223.82,814.65,97.21,923.91" style="fill:none;stroke:#fff"/></g></svg>